<?xml version="1.0" encoding="UTF-8" standalone="no"?>
<!-- Created with Inkscape (http://www.inkscape.org/) -->

<svg
   xmlns:dc="http://purl.org/dc/elements/1.1/"
   xmlns:cc="http://creativecommons.org/ns#"
   xmlns:rdf="http://www.w3.org/1999/02/22-rdf-syntax-ns#"
   xmlns:svg="http://www.w3.org/2000/svg"
   xmlns="http://www.w3.org/2000/svg"
   xmlns:sodipodi="http://sodipodi.sourceforge.net/DTD/sodipodi-0.dtd"
   xmlns:inkscape="http://www.inkscape.org/namespaces/inkscape"
   width="744.09448819"
   height="1052.3622047"
   id="svg2"
   version="1.1"
   inkscape:version="0.48.5 r10040"
   sodipodi:docname="androidusb.svg">
  <defs
     id="defs4" />
  <sodipodi:namedview
     id="base"
     pagecolor="#ffffff"
     bordercolor="#666666"
     borderopacity="1.0"
     inkscape:pageopacity="0.0"
     inkscape:pageshadow="2"
     inkscape:zoom="1.4142136"
     inkscape:cx="59.392292"
     inkscape:cy="679.36087"
     inkscape:document-units="px"
     inkscape:current-layer="layer1"
     showgrid="false"
     inkscape:window-width="1920"
     inkscape:window-height="1023"
     inkscape:window-x="0"
     inkscape:window-y="28"
     inkscape:window-maximized="1" />
  <metadata
     id="metadata7">
    <rdf:RDF>
      <cc:Work
         rdf:about="">
        <dc:format>image/svg+xml</dc:format>
        <dc:type
           rdf:resource="http://purl.org/dc/dcmitype/StillImage" />
        <dc:title></dc:title>
      </cc:Work>
    </rdf:RDF>
  </metadata>
  <g
     inkscape:label="Layer 1"
     inkscape:groupmode="layer"
     id="layer1">
    <g
       id="g4120"
       transform="translate(31.144205,114.2421)"
       style="fill:#000000;fill-opacity:1"
       inkscape:export-filename="/home/jealas/Programming/Projects/SayCheesePhotoManager/resources/flowRoot3023.png"
       inkscape:export-xdpi="320"
       inkscape:export-ydpi="320">
      <path
         id="path4112"
         d="M 366.24,82.96 C 366.24,64.758 351.482,50 333.28,50 l -156.56,0 c -18.202,0 -32.96,14.758 -32.96,32.96 l 0,346.08 c 0,18.202 14.758,32.96 32.96,32.96 l 156.56,0 c 18.202,0 32.96,-14.758 32.96,-32.96 z m -127.587,-21.88 32.959,0 c 2.277,0 4.12,1.845 4.12,4.12 0,2.275 -1.843,4.12 -4.12,4.12 l -31.2272,0 -1.7318,0 c -2.275,0 -4.12,-1.845 -4.12,-4.12 0,-2.275 1.845,-4.12 4.12,-4.12 z m 17.10484,391.414 c -4.6829,0 -8.48284,-3.79685 -8.48284,-8.47924 0,-4.68342 3.79994,-8.47976 8.48284,-8.47976 4.68291,0 8.47565,3.79685 8.47565,8.47976 0,4.68239 -3.79274,8.47924 -8.47565,8.47924 z M 355.64,426.08 l -201.28,0 0,-346.04 201.28,0 z"
         inkscape:connector-curvature="0"
         sodipodi:nodetypes="ssssssssssssscssssssssccccc"
         style="fill:#000000;fill-opacity:1" />
    </g>
    <path
       id="path1334"
       d="m 350.49044,370.24407 -14.29634,-8.25603 0,5.88945 -73.0725,0 14.22804,-15.03205 c 1.21087,-0.97057 2.79515,-1.65144 4.42487,-1.68915 6.59288,0 10.50804,-0.002 11.94917,-0.004 0.97687,2.78314 3.60088,4.79199 6.72032,4.79199 3.94629,0 7.14887,-3.20229 7.14887,-7.15001 0,-3.94944 -3.20229,-7.1506 -7.14887,-7.1506 -3.11944,0 -5.74345,2.00772 -6.72032,4.78859 l -11.80917,-0.002 c -3.20058,0 -6.5543,1.75599 -8.68889,3.81457 0.0583,-0.0612 0.11886,-0.12629 -0.003,0.002 -0.0451,0.0508 -15.09548,15.94691 -15.09548,15.94691 -1.20829,0.96913 -2.79172,1.64571 -4.4203,1.68457 l -8.26631,0 c -1.09572,-5.46088 -5.91802,-9.57517 -11.70261,-9.57517 -6.59516,0 -11.94118,5.34602 -11.94118,11.93918 0,6.59516 5.34602,11.94146 11.94118,11.94146 5.78573,0 10.60803,-4.11772 11.70375,-9.58317 l 8.12146,0 c 0.0208,0 0.0417,0.002 0.0628,0 l 17.9632,0 c 1.62543,0.0414 3.20686,0.71887 4.41402,1.68915 0,0 15.04689,15.89491 15.09348,15.94633 0.12058,0.12772 0.0606,0.0612 0.002,8.6e-4 2.13459,2.05829 5.48973,3.81315 8.69089,3.81315 l 11.3806,-0.003 0,4.79343 14.30005,0 0,-14.29861 -14.30005,0 0,4.78715 c 0,0 -2.99743,-0.005 -11.52003,-0.005 -1.63001,-0.0375 -3.21602,-0.71742 -4.4263,-1.68799 l -14.2312,-15.03491 55.20274,0 0,5.89887 14.29633,-8.25487 z"
       inkscape:connector-curvature="0"
       inkscape:export-filename="/home/jealas/Programming/Projects/SayCheesePhotoManager/resources/flowRoot3023.png"
       inkscape:export-xdpi="320"
       inkscape:export-ydpi="320" />
    <flowRoot
       xml:space="preserve"
       id="flowRoot3023"
       style="font-size:40px;font-style:normal;font-weight:normal;line-height:125%;letter-spacing:0px;word-spacing:0px;fill:#000000;fill-opacity:1;stroke:none;font-family:Sans"
       transform="translate(0.15591875,49.656854)"
       inkscape:export-xdpi="320"
       inkscape:export-ydpi="320"><flowRegion
         id="flowRegion3025"><rect
           id="rect3027"
           width="144.24979"
           height="62.225395"
           x="213.54625"
           y="411.01636" /></flowRegion><flowPara
         id="flowPara3029"
         style="text-align:center;text-anchor:middle">USB</flowPara></flowRoot>  </g>
</svg>
