<?xml version="1.0" encoding="UTF-8" standalone="no"?>
<!-- Created with Inkscape (http://www.inkscape.org/) -->

<svg
   xmlns:dc="http://purl.org/dc/elements/1.1/"
   xmlns:cc="http://creativecommons.org/ns#"
   xmlns:rdf="http://www.w3.org/1999/02/22-rdf-syntax-ns#"
   xmlns:svg="http://www.w3.org/2000/svg"
   xmlns="http://www.w3.org/2000/svg"
   xmlns:sodipodi="http://sodipodi.sourceforge.net/DTD/sodipodi-0.dtd"
   xmlns:inkscape="http://www.inkscape.org/namespaces/inkscape"
   width="744.09448819"
   height="1052.3622047"
   id="svg2"
   version="1.1"
   inkscape:version="0.48.5 r10040"
   sodipodi:docname="androidwifi.svg">
  <defs
     id="defs4" />
  <sodipodi:namedview
     id="base"
     pagecolor="#ffffff"
     bordercolor="#666666"
     borderopacity="1.0"
     inkscape:pageopacity="0.0"
     inkscape:pageshadow="2"
     inkscape:zoom="1.4142136"
     inkscape:cx="59.392292"
     inkscape:cy="679.36087"
     inkscape:document-units="px"
     inkscape:current-layer="layer1"
     showgrid="false"
     inkscape:window-width="1920"
     inkscape:window-height="1023"
     inkscape:window-x="0"
     inkscape:window-y="28"
     inkscape:window-maximized="1" />
  <metadata
     id="metadata7">
    <rdf:RDF>
      <cc:Work
         rdf:about="">
        <dc:format>image/svg+xml</dc:format>
        <dc:type
           rdf:resource="http://purl.org/dc/dcmitype/StillImage" />
        <dc:title></dc:title>
      </cc:Work>
    </rdf:RDF>
  </metadata>
  <g
     inkscape:label="Layer 1"
     inkscape:groupmode="layer"
     id="layer1">
    <g
       id="g4120"
       transform="translate(31.144205,114.2421)"
       style="fill:#000000;fill-opacity:1"
       inkscape:export-filename="/home/jealas/Programming/Projects/SayCheesePhotoManager/resources/flowRoot3031.png"
       inkscape:export-xdpi="320"
       inkscape:export-ydpi="320">
      <path
         id="path4112"
         d="M 366.24,82.96 C 366.24,64.758 351.482,50 333.28,50 l -156.56,0 c -18.202,0 -32.96,14.758 -32.96,32.96 l 0,346.08 c 0,18.202 14.758,32.96 32.96,32.96 l 156.56,0 c 18.202,0 32.96,-14.758 32.96,-32.96 z m -127.587,-21.88 32.959,0 c 2.277,0 4.12,1.845 4.12,4.12 0,2.275 -1.843,4.12 -4.12,4.12 l -31.2272,0 -1.7318,0 c -2.275,0 -4.12,-1.845 -4.12,-4.12 0,-2.275 1.845,-4.12 4.12,-4.12 z m 17.10484,391.414 c -4.6829,0 -8.48284,-3.79685 -8.48284,-8.47924 0,-4.68342 3.79994,-8.47976 8.48284,-8.47976 4.68291,0 8.47565,3.79685 8.47565,8.47976 0,4.68239 -3.79274,8.47924 -8.47565,8.47924 z M 355.64,426.08 l -201.28,0 0,-346.04 201.28,0 z"
         inkscape:connector-curvature="0"
         sodipodi:nodetypes="ssssssssssssscssssssssccccc"
         style="fill:#000000;fill-opacity:1" />
    </g>
    <path
       id="path3171"
       d="m 302.32628,402.57543 c 0,8.93613 -7.23105,16.16667 -16.16667,16.16667 -8.92804,0 -16.16666,-7.23105 -16.16666,-16.16667 0,-8.93562 7.23862,-16.16666 16.16666,-16.16666 8.93613,0 16.16667,7.23104 16.16667,16.16666 z m -53.37021,-31.1178 12.39327,10.3886 c 12.36194,-14.76168 37.29852,-14.76168 49.6448,0.0157 l 12.40943,-10.35677 c -9.26754,-11.08326 -22.83693,-17.42969 -37.24345,-17.42969 -14.39895,0 -27.96025,6.33077 -37.20405,17.3822 z m -22.71063,-23.16026 11.98304,10.86197 c 12.23513,-13.51432 29.70423,-21.25057 47.93113,-21.25057 18.21933,0 35.68034,7.73625 47.91598,21.21875 l 11.96738,-10.86198 c -15.29822,-16.86133 -37.11716,-26.52344 -59.88285,-26.52344 -22.78187,0 -44.61647,9.69394 -59.91468,26.55527 z"
       inkscape:connector-curvature="0"
       inkscape:export-filename="/home/jealas/Programming/Projects/SayCheesePhotoManager/resources/flowRoot3031.png"
       inkscape:export-xdpi="320"
       inkscape:export-ydpi="320" />
    <flowRoot
       xml:space="preserve"
       id="flowRoot3031"
       style="font-size:40px;font-style:normal;font-weight:normal;line-height:125%;letter-spacing:0px;word-spacing:0px;fill:#000000;fill-opacity:1;stroke:none;font-family:Sans"
       transform="translate(2.8336581,32)"
       inkscape:export-xdpi="320"
       inkscape:export-ydpi="320"><flowRegion
         id="flowRegion3033"><rect
           id="rect3035"
           width="157.68481"
           height="60.81118"
           x="205.76807"
           y="427.98691" /></flowRegion><flowPara
         id="flowPara3037"
         style="text-align:center;text-anchor:middle">WIFI</flowPara></flowRoot>  </g>
</svg>
